<svg xmlns="http://www.w3.org/2000/svg" viewBox="0 0 108 108">
<defs><linearGradient id="bg" x1="0" y1="0" x2="108" y2="108" gradientUnits="userSpaceOnUse"><stop stop-color="#1a237e"/><stop offset=".5" stop-color="#0d47a1"/><stop offset="1" stop-color="#00695c"/></linearGradient></defs>
<rect width="108" height="108" rx="26" fill="url(#bg)"/>
<circle cx="54" cy="54" r="36" fill="#fff" opacity=".08"/>
<rect x="26" y="28" width="56" height="52" rx="7" fill="#fff"/>
<path d="M26 34q0-6 6-6h44q6 0 6 6v10H26Z" fill="#ffb300"/>
<rect x="38" y="24" width="4" height="8" rx="1" fill="#37474f"/><rect x="66" y="24" width="4" height="8" rx="1" fill="#37474f"/>
<rect x="34" y="48" width="40" height="3" fill="#e0e0e0"/><rect x="34" y="55" width="26" height="3" fill="#e0e0e0"/><rect x="34" y="62" width="34" height="3" fill="#e0e0e0"/>
<path d="M64 54c0-6.6-4-12-10-12s-10 5.4-10 12c0 9-4 11-4 13h28c0-2-4-4-4-13Z" fill="#ffd54f"/>
<path d="M52 38h4v4h-4zM51 68c0 1.7 1.3 3 3 3s3-1.3 3-3Z" fill="#ffa000"/>
<rect x="38" y="65" width="32" height="2" fill="#ffc107"/>
</svg>
